<?xml version="1.0" encoding="UTF-8"?>
<!DOCTYPE svg PUBLIC "-//W3C//DTD SVG 1.1//EN" "http://www.w3.org/Graphics/SVG/1.1/DTD/svg11.dtd">
<!-- Creator: CorelDRAW 2020 (64 Bit) -->
<svg xmlns="http://www.w3.org/2000/svg" xml:space="preserve" width="20.3683mm" height="8.0182mm" version="1.1" style="shape-rendering:geometricPrecision; text-rendering:geometricPrecision; image-rendering:optimizeQuality; fill-rule:evenodd; clip-rule:evenodd"
viewBox="0 0 286.64 112.84"
 xmlns:xlink="http://www.w3.org/1999/xlink"
 xmlns:xodm="http://www.corel.com/coreldraw/odm/2003">
 <defs>
  <style type="text/css">
   <![CDATA[
    .fil0 {fill:#FEFEFE;fill-rule:nonzero}
   ]]>
  </style>
 </defs>
 <g id="Camada_x0020_1">
  <metadata id="CorelCorpID_0Corel-Layer"/>
  <path class="fil0" d="M4.7 112.84c-3.14,0 -4.7,-1.57 -4.7,-4.7l0 -101.87c0,-3.13 1.57,-4.7 4.7,-4.7l22.88 0c2.4,0 4.23,1.1 5.48,3.29l35.89 67.08 0 -65.67c0,-3.13 1.57,-4.7 4.7,-4.7l17.24 0c3.14,0 4.7,1.57 4.7,4.7l0 101.87c0,3.13 -1.57,4.7 -4.7,4.7l-22.88 0c-2.4,0 -4.23,-1.1 -5.48,-3.29l-35.89 -67.08 0 65.67c0,3.13 -1.57,4.7 -4.7,4.7l-17.24 0zm170.35 -26.64c3.14,0 4.7,1.57 4.7,4.7l0 15.67c0,3.13 -1.57,4.7 -4.7,4.7l-68.49 0c-3.14,0 -4.7,-1.57 -4.7,-4.7l0 -101.87c0,-3.13 1.57,-4.7 4.7,-4.7l66.92 0c3.13,0 4.7,1.57 4.7,4.7l0 15.67c0,3.14 -1.57,4.7 -4.7,4.7l-44.98 0 0 18.81 37.14 0c3.13,0 4.7,1.57 4.7,4.7l0 14.1c0,3.14 -1.57,4.7 -4.7,4.7l-37.14 0 0 18.81 46.55 0zm6.58 -83.22c0.73,-0.94 1.93,-1.41 3.61,-1.41l20.22 0c2.72,0 4.44,1.31 5.17,3.92l23.51 78.99 23.35 -78.99c0.73,-2.61 2.46,-3.92 5.17,-3.92l19.75 0c1.67,0 2.79,0.39 3.37,1.18 0.57,0.78 0.86,1.54 0.86,2.27 0,0.63 -0.11,1.25 -0.31,1.88l-33.07 102.02c-0.73,2.61 -2.51,3.92 -5.33,3.92l-28.21 0c-2.82,0 -4.6,-1.31 -5.33,-3.92l-33.07 -102.02c-0.21,-0.63 -0.31,-1.25 -0.31,-1.88 0,-0.73 0.21,-1.41 0.63,-2.04z"/>
 </g>
</svg>
