<?xml version="1.0" encoding="UTF-8"?>
<!DOCTYPE svg PUBLIC "-//W3C//DTD SVG 1.1//EN" "http://www.w3.org/Graphics/SVG/1.1/DTD/svg11.dtd">
<!-- Creator: CorelDRAW 2020 (64 Bit) -->
<svg xmlns="http://www.w3.org/2000/svg" xml:space="preserve" width="20.3683mm" height="8.0182mm" version="1.1" style="shape-rendering:geometricPrecision; text-rendering:geometricPrecision; image-rendering:optimizeQuality; fill-rule:evenodd; clip-rule:evenodd"
viewBox="0 0 214.45 84.42"
 xmlns:xlink="http://www.w3.org/1999/xlink"
 xmlns:xodm="http://www.corel.com/coreldraw/odm/2003">
 <defs>
  <style type="text/css">
   <![CDATA[
    .fil0 {fill:#0077B0;fill-rule:nonzero}
   ]]>
  </style>
 </defs>
 <g id="Camada_x0020_1">
  <metadata id="CorelCorpID_0Corel-Layer"/>
  <path class="fil0" d="M3.52 84.42c-2.35,0 -3.52,-1.17 -3.52,-3.52l0 -76.21c0,-2.34 1.17,-3.52 3.52,-3.52l17.12 0c1.8,0 3.16,0.82 4.1,2.46l26.85 50.18 0 -49.13c0,-2.34 1.17,-3.52 3.52,-3.52l12.9 0c2.35,0 3.52,1.17 3.52,3.52l0 76.21c0,2.34 -1.17,3.52 -3.52,3.52l-17.12 0c-1.8,0 -3.16,-0.82 -4.1,-2.46l-26.85 -50.18 0 49.13c0,2.34 -1.17,3.52 -3.52,3.52l-12.9 0zm127.45 -19.93c2.35,0 3.52,1.17 3.52,3.52l0 11.72c0,2.34 -1.17,3.52 -3.52,3.52l-51.24 0c-2.35,0 -3.52,-1.17 -3.52,-3.52l0 -76.21c0,-2.34 1.17,-3.52 3.52,-3.52l50.07 0c2.34,0 3.52,1.17 3.52,3.52l0 11.72c0,2.35 -1.17,3.52 -3.52,3.52l-33.65 0 0 14.07 27.79 0c2.34,0 3.52,1.17 3.52,3.52l0 10.55c0,2.35 -1.17,3.52 -3.52,3.52l-27.79 0 0 14.07 34.82 0zm4.92 -62.26c0.55,-0.7 1.45,-1.06 2.7,-1.06l15.13 0c2.03,0 3.32,0.98 3.87,2.93l17.59 59.09 17.47 -59.09c0.55,-1.95 1.84,-2.93 3.87,-2.93l14.77 0c1.25,0 2.09,0.29 2.52,0.88 0.43,0.59 0.65,1.15 0.65,1.7 0,0.47 -0.08,0.94 -0.23,1.41l-24.74 76.33c-0.55,1.95 -1.88,2.93 -3.99,2.93l-21.1 0c-2.11,0 -3.44,-0.98 -3.99,-2.93l-24.74 -76.33c-0.16,-0.47 -0.23,-0.94 -0.23,-1.41 0,-0.55 0.16,-1.05 0.47,-1.52z"/>
 </g>
</svg>
